<?xml version="1.0" standalone="no"?><!DOCTYPE svg PUBLIC "-//W3C//DTD SVG 1.1//EN" "http://www.w3.org/Graphics/SVG/1.1/DTD/svg11.dtd"><svg t="1532574335630" class="icon" style="" viewBox="0 0 1024 1024" version="1.1" xmlns="http://www.w3.org/2000/svg" p-id="930" xmlns:xlink="http://www.w3.org/1999/xlink" width="200" height="200"><defs><style type="text/css"></style></defs><path d="M310 871.1l-43.9-40.8 160.8-173-69.3-269.9 487.5 191.3-6.6 272.7-60-1.4 5.6-230.8-339.2-133.1 48.3 188z" fill="#1296db" p-id="931"></path><path d="M288 850.4h538.9" fill="#1296db" p-id="932"></path><path d="M288 820.4h538.9v60H288z" fill="#1296db" p-id="933"></path><path d="M288 405.8c-122.8 0-222.4 99.6-222.4 222.4S165.2 850.7 288 850.7s222.4-99.6 222.4-222.4S410.9 405.8 288 405.8z m0 321.6c-54.7 0-99.1-44.4-99.1-99.1s44.4-99.1 99.1-99.1 99.1 44.4 99.1 99.1-44.3 99.1-99.1 99.1z" fill="#1296db" p-id="934"></path><path d="M288 880.7c-67.4 0-130.8-26.3-178.5-73.9-47.7-47.7-73.9-111.1-73.9-178.5s26.3-130.8 73.9-178.5c47.7-47.7 111.1-73.9 178.5-73.9s130.8 26.3 178.5 73.9c47.7 47.7 73.9 111.1 73.9 178.5s-26.3 130.8-73.9 178.5c-47.6 47.6-111 73.9-178.5 73.9z m0-444.9c-106.1 0-192.4 86.3-192.4 192.4 0 106.1 86.3 192.4 192.4 192.4 106.1 0 192.4-86.3 192.4-192.4 0.1-106.1-86.3-192.4-192.4-192.4z m0 321.6c-71.2 0-129.1-57.9-129.1-129.1 0-71.2 57.9-129.1 129.1-129.1s129.1 57.9 129.1 129.1c0 71.1-57.9 129.1-129.1 129.1z m0-198.2c-38.1 0-69.1 31-69.1 69.1s31 69.1 69.1 69.1 69.1-31 69.1-69.1-31-69.1-69.1-69.1z" fill="#1296db" p-id="935"></path><path d="M832.7 724.8m-125.9 0a125.9 125.9 0 1 0 251.8 0 125.9 125.9 0 1 0-251.8 0Z" fill="#1296db" p-id="936"></path><path d="M832.7 880.7c-86 0-155.9-69.9-155.9-155.9s69.9-155.9 155.9-155.9 155.9 69.9 155.9 155.9-69.9 155.9-155.9 155.9z m0-251.8c-52.9 0-95.9 43-95.9 95.9 0 52.9 43 95.9 95.9 95.9 52.9 0 95.9-43 95.9-95.9 0-52.9-43-95.9-95.9-95.9z" fill="#1296db" p-id="937"></path><path d="M938.1 436.8H697c-8.8 0-16-7.2-16-16V316.9c0-8.8 7.2-16 16-16h241.1c8.8 0 16 7.2 16 16v103.9c0 8.8-7.2 16-16 16z" fill="#1296db" p-id="938"></path><path d="M938.1 466.8H697c-25.4 0-46-20.6-46-46V316.9c0-25.4 20.6-46 46-46h241.1c25.4 0 46 20.6 46 46v103.9c0 25.3-20.6 46-46 46z m-227.1-60h213.1v-75.9H711v75.9zM435.6 273H94.2c-12.1 0-23.1-7.3-27.7-18.5-4.6-11.2-2.1-24.1 6.5-32.7l68.3-68.3c11.7-11.7 30.7-11.7 42.4 0s11.7 30.7 0 42.4L166.6 213h256.6l59.5-59.5c11.7-11.7 30.7-11.7 42.4 0s11.7 30.7 0 42.4l-68.3 68.3c-5.6 5.6-13.3 8.8-21.2 8.8z" fill="#1296db" p-id="939"></path><path d="M298.8 243l-0.6 163.5" fill="#1296db" p-id="940"></path><path d="M268.198 406.36l0.617-163.4 60 0.226-0.617 163.4z" fill="#1296db" p-id="941"></path><path d="M817.5 426.9v162" fill="#1296db" p-id="942"></path><path d="M787.5 426.9h60v162h-60z" fill="#1296db" p-id="943"></path></svg>